<?xml version="1.0" encoding="UTF-8"?>
<svg id="_레이어_1" data-name=" 레이어 1" xmlns="http://www.w3.org/2000/svg" version="1.1" viewBox="0 0 961.5 493.5">
  <defs>
    <style>
      .cls-1 {
        fill: #fff;
        fill-opacity: .9;
        stroke-width: 0px;
      }
    </style>
  </defs>
  <path class="cls-1" d="M70.5,73.6c3.6-7.9,5.5-16.7,5.5-26.5s-3.1-23.1-9.2-31.2c-7-9-16.6-13.5-29.1-13.5H.8v92.1h36.6c15.6,0,26.7-7,33-21h.1ZM13.4,83.8V13.1h21.7c9.8,0,17,3.2,21.4,9.5,4.5,6.3,6.7,15.2,6.7,26.6s-.3,6.2-.9,9.6c-1.1,5.8-2.8,10.6-5.3,14.3-3.1,4.6-6.9,7.8-11.7,9.4-2.6.9-6,1.3-10.2,1.3H13.3h0Z"/>
  <path class="cls-1" d="M158.8,83.6h-55.7v-31.3h50.5v-10.6h-50.5V13.7h54.7V2.4h-66.8v92.1h67.8v-10.9Z"/>
  <path class="cls-1" d="M229.5,90.6c7.2-4.4,10.8-11.7,10.8-21.9s-2.8-14.4-8.5-18.7c-3.3-2.5-8-4.4-14-5.8l-12.5-3c-8.4-2-13.8-3.7-16.2-5-3.6-2.1-5.5-5.4-5.5-10s1.5-7.7,4.6-10.8,8.2-4.6,15.2-4.6,14.9,2.4,18.6,7.2c2,2.6,3.3,6.5,3.8,11.4h11.7c0-10.3-3.3-17.7-9.8-22.3-6.6-4.7-14.6-7.1-24-7.1s-18.2,2.6-23.6,8c-5.6,5.4-8.3,12.1-8.3,20.3s2.8,13.3,8.5,17.3c3.3,2.2,8.9,4.3,16.7,6.1l12.1,2.8c6.6,1.5,11.4,3.4,14.4,5.5,3.1,2.1,4.6,5.7,4.6,10.7s-3.6,11.4-10.7,13.9c-3.7,1.3-7.8,2-12.4,2-10.1,0-17.1-3.1-21.1-9.2-2.1-3.3-3.3-7.5-3.6-12.7h-11.7c0,10,3,17.8,9.3,23.6,6.3,5.9,15.1,8.8,26.3,8.8s17.9-2.3,25.2-6.7h.1v.2Z"/>
  <path class="cls-1" d="M270.2,2.4h-12.6v92.1h12.6V2.4Z"/>
  <path class="cls-1" d="M324,97c8.3,0,15.2-1.5,20.6-4.6,3.2-1.8,6.9-5,11-9.6l3.1,11.8h8v-49.3h-40.5v10.4h28.9c0,10.8-2.8,18.6-8.2,23.4s-12.1,7.2-20.2,7.2-18.4-3.4-23.1-10.3-7.1-15.8-7.1-26.8,2.8-22.2,8.5-28.6c5.7-6.3,12.7-9.6,21.1-9.6s12.9,1.5,17.5,4.6,7.7,8,9.2,14.7h12.4c-2-12-7.5-20.5-16.5-25.3-6.2-3.4-13.6-5-22.1-5-12.5,0-22.5,4.4-30.4,13-8.2,9.1-12.4,21.3-12.4,36.9s4.3,27.7,12.7,36.5c7.5,7.1,16.8,10.6,27.6,10.6h-.1Z"/>
  <path class="cls-1" d="M395.8,20.2l46.7,74.4h14V2.5h-11.9v74.4L398.7,2.5h-14.8v92.1h11.9V20.2h0Z"/>
  <path class="cls-1" d="M62.9,209.1c-4.7,7.1-11.6,10.6-20.7,10.6s-17.2-3.4-22.1-10.1c-4.9-6.7-7.4-15.4-7.4-26.3s2.7-23,8.2-29.3c5.5-6.3,12.7-9.6,21.6-9.6s13,1.8,17.1,5.3c4,3.5,6.8,8.2,8.1,14.1h12.1c-.7-7.8-4.3-14.8-10.6-20.9-6.3-6.1-15.3-9.2-26.8-9.2s-24.1,4.7-31.8,14.2c-7.1,8.8-10.6,19.8-10.6,33.5s4.7,31.2,14.2,39.7c7.2,6.5,16.1,9.7,26.7,9.7s22-3.9,29.2-11.8c6-6.6,9.6-14.7,10.6-24.4h-12.1c-1.2,5.9-3.1,10.7-5.6,14.4h0Z"/>
  <path class="cls-1" d="M133.3,133.6c-15.5,0-27.3,5.7-35.2,17.1-6.2,8.9-9.3,19.5-9.3,31.9s3.6,25.2,10.8,34.2c8.1,9.4,19.3,14,33.5,14s26.9-5.4,35-16.1c7-9.1,10.5-20.6,10.5-34.4s-3.1-23.2-9.2-31.3c-7.8-10.3-19.9-15.5-36.1-15.5h0ZM158.4,208c-4.9,7.9-12.9,11.8-23.8,11.8s-19.9-3.5-25.2-10.5c-5.1-7-7.8-15.6-7.8-25.8s3.1-22.4,9.1-29,13.8-9.8,23.3-9.8,17.6,3.3,23.2,10c5.7,6.6,8.5,15.3,8.5,26.1s-2.4,19.4-7.3,27.2h0Z"/>
  <path class="cls-1" d="M262.7,228.2v-92.1h-11.8v74.5l-45.9-74.5h-14.8v92.1h11.9v-74.2l46.6,74.3h14Z"/>
  <path class="cls-1" d="M306.8,228.2h13.2l33.6-92.1h-14l-26.1,78.4-26.5-78.4h-13.8l33.6,92.1h0Z"/>
  <path class="cls-1" d="M430.2,147.4v-11.3h-66.8v92.1h67.8v-10.9h-55.6v-31.2h50.5v-10.7h-50.5v-28h54.6Z"/>
  <path class="cls-1" d="M517.4,220.6c-.4-1.8-.8-4.4-.9-7.9l-.4-12.4c-.2-5.4-1.2-9.2-3.1-11.6s-4.5-4.3-8.1-5.8c4-2.1,7.3-4.9,9.5-8.4,2.3-3.5,3.4-8,3.4-13.6,0-10.6-4.3-17.8-12.8-21.8-4.5-2.1-10.2-3.1-17.1-3.1h-41.9v92.1h12.5v-39.4h27.6c4.9,0,8.6.5,10.9,1.6,4,2.1,6.2,6.1,6.6,12.1l.8,15.3c.2,3.6.3,6,.7,7.3.3,1.3.5,2.3,1,3.1h15.3v-2.1c-1.9-.8-3.3-2.6-3.9-5.6v.2h-.1ZM500.2,174.9c-3.3,2.3-7.8,3.5-13.5,3.5h-28v-31.6h29.5c4.2,0,7.4.7,10,1.9,4.6,2.4,7,6.9,7,13.5-.1,6.1-1.8,10.3-5,12.7h0Z"/>
  <path class="cls-1" d="M613.6,179h-40.5v10.4h28.9c0,10.8-2.8,18.6-8.2,23.4-5.4,4.8-12.1,7.2-20.2,7.2s-18.4-3.4-23.1-10.3c-4.7-6.9-7.1-15.8-7.1-26.8s2.8-22.2,8.5-28.6c5.7-6.3,12.7-9.6,21.1-9.6s12.9,1.5,17.5,4.6,7.7,8,9.2,14.7h12.4c-2-12-7.5-20.5-16.5-25.3-6.2-3.4-13.6-5-22.1-5-12.5,0-22.5,4.4-30.4,13-8.2,9.1-12.4,21.3-12.4,36.9s4.3,27.7,12.7,36.5c7.8,7.1,17,10.6,27.7,10.6s15.2-1.5,20.6-4.6c3.2-1.8,6.9-5,11-9.6l3.1,11.8h8v-49.3h-.2Z"/>
  <path class="cls-1" d="M699.9,217.3h-55.6v-31.2h50.5v-10.7h-50.5v-28h54.7v-11.3h-67v92.1h67.8v-10.9h0Z"/>
  <path class="cls-1" d="M725.3,154l46.6,74.3h14.1v-92.2h-11.9v74.5l-45.9-74.5h-14.8v92.1h11.9v-74.2h0Z"/>
  <path class="cls-1" d="M813,221c7.2,6.5,16.1,9.7,26.7,9.7s22-3.9,29.2-11.8c6-6.6,9.6-14.7,10.6-24.4h-12.1c-1.2,6-3.1,10.9-5.6,14.7-4.7,7.1-11.6,10.6-20.7,10.6s-17.2-3.4-22.1-10.1c-4.9-6.7-7.4-15.4-7.4-26.3s2.7-23,8.2-29.3,12.7-9.6,21.6-9.6,13,1.8,17.1,5.3c4,3.5,6.8,8.2,8.1,14.1h12.1c-.7-7.8-4.3-14.8-10.6-20.9-6.3-6.1-15.3-9.2-26.8-9.2s-24.1,4.7-31.8,14.2c-7.1,8.8-10.6,19.8-10.6,33.5s4.7,30.9,14.2,39.5h-.1Z"/>
  <path class="cls-1" d="M961.5,217.3h-55.7v-31.2h50.5v-10.7h-50.5v-28h54.7v-11.3h-66.9v92.1h67.8v-10.9h.1Z"/>
  <g>
    <path class="cls-1" d="M266.5,338.3c-4.7,7.1-11.6,10.6-20.7,10.6s-17.2-3.4-22.1-10.1-7.4-15.4-7.4-26.3,2.7-23,8.2-29.3c5.5-6.3,12.7-9.6,21.6-9.6s13,1.8,17.1,5.3c4,3.5,6.8,8.2,8.1,14.1h12.1c-.7-7.8-4.3-14.8-10.6-20.9-6.4-6.1-15.4-9.2-26.9-9.2s-24,4.7-31.8,14.2c-7.1,8.8-10.6,19.8-10.6,33.5s4.7,31.2,14.2,39.7c7.2,6.5,16.1,9.7,26.7,9.7s22-3.9,29.2-11.8c6-6.6,9.6-14.7,10.6-24.4h-12.1c-1.2,5.8-3.1,10.7-5.6,14.4h0Z"/>
    <path class="cls-1" d="M337,262.7c-15.5,0-27.3,5.7-35.2,17.1-6.2,8.9-9.3,19.5-9.3,31.9s3.6,25.2,10.8,34.2c8.1,9.4,19.3,14,33.5,14s26.9-5.4,35-16.1c7-9.1,10.5-20.6,10.5-34.4s-3.1-23.2-9.2-31.3c-7.8-10.4-19.8-15.5-36.1-15.5h0ZM362.1,337.2c-4.9,7.9-12.9,11.8-23.8,11.8s-19.9-3.5-25.2-10.5c-5.1-7-7.8-15.6-7.8-25.8s3.1-22.4,9.1-29,13.8-9.8,23.3-9.8,17.6,3.3,23.2,10c5.7,6.6,8.5,15.3,8.5,26.1s-2.4,19.4-7.3,27.2h0Z"/>
    <path class="cls-1" d="M406.4,265.3h-12.6v92.1h58.7v-11h-46.2v-81.1h.1Z"/>
    <path class="cls-1" d="M474.6,265.3h-12.5v92.1h58.7v-11h-46.3v-81.1h0Z"/>
    <path class="cls-1" d="M543.7,315.2h50.5v-10.7h-50.5v-27.9h54.7v-11.3h-66.8v92.1h67.7v-11h-55.6v-31.2h0Z"/>
    <path class="cls-1" d="M678.7,348c6-6.6,9.6-14.7,10.6-24.4h-12.1c-1.2,6-3.1,10.9-5.6,14.7-4.7,7.1-11.6,10.6-20.7,10.6s-17.2-3.4-22.1-10.1-7.4-15.4-7.4-26.3,2.7-23,8.2-29.3,12.7-9.6,21.6-9.6,13,1.8,17.1,5.3c4,3.5,6.8,8.2,8.1,14.1h12.3c-.7-7.8-4.3-14.8-10.6-20.9-6.3-6.1-15.3-9.2-26.8-9.2s-24.1,4.7-31.8,14.2c-7.1,8.8-10.6,19.8-10.6,33.5s4.7,31.2,14.2,39.7c7.2,6.5,16.1,9.7,26.7,9.7,12.1-.2,21.9-4.2,29.1-12h-.2Z"/>
    <path class="cls-1" d="M738.2,357.4v-81.1h31.1v-11h-74.7v10.9h31.1v81.2h12.6,0,0Z"/>
    <path class="cls-1" d="M793.1,265.3h-12.6v92.1h12.6v-92.1Z"/>
    <path class="cls-1" d="M843.8,343.8l-26.5-78.4h-13.8l33.6,92.1h13.2l33.7-92.2h-14l-26.1,78.4h-.1Z"/>
    <path class="cls-1" d="M961.5,346.4h-55.7v-31.2h50.5v-10.7h-50.5v-27.9h54.7v-11.3h-66.8v92.1h67.8v-11Z"/>
    <path class="cls-1" d="M749.5,441.2c0-12.1-3-22.1-8.8-29.9-7.4-10-18.9-15-34.5-15s-26,5.5-33.6,16.3c-5.9,8.4-8.9,18.6-8.9,30.5s3.4,24,10.2,32.7c7.8,9,18.4,13.3,32.1,13.3s8.6-.5,12.5-1.6c3.8-1.1,7.3-2.5,10.6-4.3l13.6,10.3,6-7.2-12-9.4c5-5,8.5-11.5,10.7-19.5,1.4-5.1,2.1-10.6,2.1-16.3h0ZM735.3,456.3c-1.3,5.1-3.7,9.8-7.4,14l-11.5-9-6,7.3,9.7,7.5c-1.6,1-3.5,1.6-5.6,2.1-2.1.4-4.5.5-7,.5-10.3,0-18.2-3.2-23.4-9.4-5.4-6.2-8-14.7-8-25.3s2.7-21.9,8.3-27.9,13-9.1,22.5-9.1,16.7,3.2,22.2,9.5c5.4,6.3,8.1,14.7,8.1,24.9s-.7,9.5-2,14.7v.2h.1Z"/>
    <path class="cls-1" d="M786.5,402.2c-4,2.5-7.4,6.8-10.2,12.6v-14.6h-11.6v89.3h11.6v-43.8c0-4.8.4-9.4,1.3-13.9.9-4.4,2.3-8.2,4.5-11.4,2.1-3.2,5-5.7,8.6-7.5,3.6-1.9,8.3-2.7,13.9-2.6h.8v-12.5h-.7c-7.5.1-13.7,1.5-18.3,4.4h.1Z"/>
    <path class="cls-1" d="M866.2,444.3c-4.2-1.9-8.9-3.4-13.7-4.4s-9.4-2.2-13.5-3.5c-4-1.3-7.5-3-10.2-5-2.6-2-3.9-4.8-3.9-8.5s1.5-7.8,4.8-10.4c3.3-2.6,8.1-4,14.3-4s11.6,1.3,15.6,4c4,2.6,6.6,7.3,7.4,13.9v.5h11.8v-.8c-1.4-10.1-5-17.4-11.2-21.8-6-4.3-13.9-6.5-23.5-6.5s-17.7,2.4-23.2,7.2-8.3,11-8.3,18.6,1.4,10.6,4.3,13.8c2.8,3.3,6.5,5.7,10.7,7.4,4.2,1.8,8.9,3,13.7,3.8,4.8.9,9.4,1.9,13.5,3.1,4,1.2,7.5,2.7,10.2,4.8,2.6,2,3.9,4.9,3.9,9.1s-.4,4-1.3,5.8c-.9,1.9-2.2,3.5-3.8,4.9s-3.8,2.6-6.5,3.5c-2.6.9-5.8,1.3-9.4,1.3-7.5,0-13.3-1.5-17.3-4.5-3.9-3-6.8-8.2-8.3-15.6v-.5h-11.7v.7c.2,4.3,1.2,8.2,2.7,11.9,1.6,3.7,3.8,6.9,6.8,9.7,2.8,2.7,6.5,4.9,10.5,6.5,4,1.5,8.8,2.3,14,2.3s10.1-.5,14.4-1.6c4.4-1.1,8.3-2.7,11.5-4.9,3.3-2.2,5.8-4.9,7.7-8.3,1.9-3.3,2.8-7.1,2.8-11.4s-1.4-10.4-4.3-13.7c-3-3-6.5-5.5-10.7-7.4h.2Z"/>
    <path class="cls-1" d="M886.1,398.9v10.9h31.1v81.2h12.6v-81.2h31.1v-10.9h-74.8,0Z"/>
  </g>
</svg>