<?xml version="1.0" encoding="UTF-8"?>
<svg id="_레이어_1" data-name=" 레이어 1" xmlns="http://www.w3.org/2000/svg" version="1.1" viewBox="0 0 758 230.8">
  <defs>
    <style>
      .cls-1 {
        fill: #fff;
        fill-opacity: .9;
        stroke-width: 0px;
      }
    </style>
  </defs>
  <path class="cls-1" d="M63,75.6c-4.7,7.1-11.6,10.6-20.7,10.6s-17.2-3.4-22.1-10.1-7.4-15.4-7.4-26.3,2.7-23,8.2-29.3,12.7-9.6,21.6-9.6,13,1.8,17.1,5.3c4,3.5,6.8,8.2,8.1,14.1h12.1c-.7-7.8-4.3-14.8-10.6-20.9C62.9,3.3,53.9.2,42.4.2S18.4,4.9,10.6,14.4C3.5,23.2,0,34.2,0,47.9s4.7,31.2,14.2,39.7c7.2,6.5,16.1,9.7,26.7,9.7s22-3.9,29.2-11.8c6-6.6,9.6-14.7,10.6-24.4h-12.1c-1.2,5.8-3.1,10.7-5.6,14.4h0Z"/>
  <path class="cls-1" d="M133.5,0c-15.5,0-27.3,5.7-35.2,17.1-6.2,8.9-9.3,19.5-9.3,31.9s3.6,25.2,10.8,34.2c8.1,9.4,19.3,14,33.5,14s26.9-5.4,35-16.1c7-9.1,10.5-20.6,10.5-34.4s-3.1-23.2-9.2-31.3c-7.8-10.4-19.8-15.5-36.1-15.5h0ZM158.6,74.5c-4.9,7.9-12.9,11.8-23.8,11.8s-19.9-3.5-25.2-10.5c-5.1-7-7.8-15.6-7.8-25.8s3.1-22.4,9.1-29,13.8-9.8,23.3-9.8,17.6,3.3,23.2,10c5.7,6.6,8.5,15.3,8.5,26.1s-2.4,19.4-7.3,27.2h0Z"/>
  <path class="cls-1" d="M202.9,2.6h-12.6v92.1h58.7v-11h-46.2V2.6h.1Z"/>
  <path class="cls-1" d="M271.1,2.6h-12.5v92.1h58.7v-11h-46.3V2.6h0Z"/>
  <path class="cls-1" d="M340.2,52.5h50.5v-10.7h-50.5V13.9h54.7V2.6h-66.8v92.1h67.7v-11h-55.6v-31.2h0Z"/>
  <path class="cls-1" d="M475.2,85.3c6-6.6,9.6-14.7,10.6-24.4h-12.1c-1.2,6-3.1,10.9-5.6,14.7-4.7,7.1-11.6,10.6-20.7,10.6s-17.2-3.4-22.1-10.1-7.4-15.4-7.4-26.3,2.7-23,8.2-29.3,12.7-9.6,21.6-9.6,13,1.8,17.1,5.3c4,3.5,6.8,8.2,8.1,14.1h12.3c-.7-7.8-4.3-14.8-10.6-20.9-6.3-6.1-15.3-9.2-26.8-9.2s-24.1,4.7-31.8,14.2c-7.1,8.8-10.6,19.8-10.6,33.5s4.7,31.2,14.2,39.7c7.2,6.5,16.1,9.7,26.7,9.7,12.1-.2,21.9-4.2,29.1-12h-.2Z"/>
  <path class="cls-1" d="M534.7,94.7V13.6h31.1V2.6h-74.7v10.9h31.1v81.2h12.6-.1Z"/>
  <path class="cls-1" d="M589.6,2.6h-12.6v92.1h12.6V2.6Z"/>
  <path class="cls-1" d="M640.3,81.1l-26.5-78.4h-13.8l33.6,92.1h13.2L680.5,2.6h-14l-26.1,78.4h0Z"/>
  <path class="cls-1" d="M758,83.7h-55.7v-31.2h50.5v-10.7h-50.5V13.9h54.7V2.6h-66.8v92.1h67.8v-11Z"/>
  <path class="cls-1" d="M546,178.5c0-12.1-3-22.1-8.8-29.9-7.4-10-18.9-15-34.5-15s-26,5.5-33.6,16.3c-5.9,8.4-8.9,18.6-8.9,30.5s3.4,24,10.2,32.7c7.8,9,18.4,13.3,32.1,13.3s8.6-.5,12.5-1.6c3.8-1.1,7.3-2.5,10.6-4.3l13.6,10.3,6-7.2-12-9.4c5-5,8.5-11.5,10.7-19.5,1.4-5.1,2.1-10.6,2.1-16.3h0ZM531.8,193.6c-1.3,5.1-3.7,9.8-7.4,14l-11.5-9-6,7.3,9.7,7.5c-1.6,1-3.5,1.6-5.6,2.1-2.1.4-4.5.5-7,.5-10.3,0-18.2-3.2-23.4-9.4-5.4-6.2-8-14.7-8-25.3s2.7-21.9,8.3-27.9,13-9.1,22.5-9.1,16.7,3.2,22.2,9.5c5.4,6.3,8.1,14.7,8.1,24.9s-.7,9.5-2,14.7v.2h0Z"/>
  <path class="cls-1" d="M583,139.5c-4,2.5-7.4,6.8-10.2,12.6v-14.6h-11.6v89.3h11.6v-43.8c0-4.8.4-9.4,1.3-13.9.9-4.4,2.3-8.2,4.5-11.4,2.1-3.2,5-5.7,8.6-7.5,3.6-1.9,8.3-2.7,13.9-2.6h.8v-12.5h-.7c-7.5.1-13.7,1.5-18.3,4.4h0,0Z"/>
  <path class="cls-1" d="M662.7,181.6c-4.2-1.9-8.9-3.4-13.7-4.4s-9.4-2.2-13.5-3.5c-4-1.3-7.5-3-10.2-5-2.6-2-3.9-4.8-3.9-8.5s1.5-7.8,4.8-10.4c3.3-2.6,8.1-4,14.3-4s11.6,1.3,15.6,4c4,2.6,6.6,7.3,7.4,13.9v.5h11.8v-.8c-1.4-10.1-5-17.4-11.2-21.8-6-4.3-13.9-6.5-23.5-6.5s-17.7,2.4-23.2,7.2-8.3,11-8.3,18.6,1.4,10.6,4.3,13.8c2.8,3.3,6.5,5.7,10.7,7.4,4.2,1.8,8.9,3,13.7,3.8,4.8.9,9.4,1.9,13.5,3.1,4,1.2,7.5,2.7,10.2,4.8,2.6,2,3.9,4.9,3.9,9.1s-.4,4-1.3,5.8c-.9,1.9-2.2,3.5-3.8,4.9s-3.8,2.6-6.5,3.5c-2.6.9-5.8,1.3-9.4,1.3-7.5,0-13.3-1.5-17.3-4.5-3.9-3-6.8-8.2-8.3-15.6v-.5h-11.7v.7c.2,4.3,1.2,8.2,2.7,11.9,1.6,3.7,3.8,6.9,6.8,9.7,2.8,2.7,6.5,4.9,10.5,6.5,4,1.5,8.8,2.3,14,2.3s10.1-.5,14.4-1.6c4.4-1.1,8.3-2.7,11.5-4.9,3.3-2.2,5.8-4.9,7.7-8.3,1.9-3.3,2.8-7.1,2.8-11.4s-1.4-10.4-4.3-13.7c-3-3-6.5-5.5-10.7-7.4,0,0,.2,0,.2,0Z"/>
  <path class="cls-1" d="M682.6,136.2v10.9h31.1v81.2h12.6v-81.2h31.1v-10.9h-74.8Z"/>
</svg>